<svg id="Layer_1" fill="#c5ff0a" xmlns="http://www.w3.org/2000/svg" viewBox="0 0 64 64" class="" width="100"><polygon points="48.83 22.01 48.83 19.96 46.38 19.96 46.38 17.91 44.08 17.91 44.08 15.83 36.58 15.83 36.58 17.91 33.98 17.91 33.98 20.07 31.97 20.07 31.97 20.08 30.02 20.08 30.02 17.91 27.42 17.91 27.42 15.83 19.92 15.83 19.92 17.91 17.62 17.91 17.62 19.97 15.17 19.97 15.17 22.01 12.81 22.01 12.81 30.74 15.17 30.74 15.17 34.5 17.62 34.5 17.62 36.76 19.92 36.76 19.92 39.03 22.36 39.03 22.36 41.34 24.58 41.34 24.58 43.77 26.79 43.77 26.79 45.82 29.22 45.82 29.22 48.17 32.01 48.17 32.01 48.17 34.78 48.17 34.78 45.82 37.21 45.82 37.21 43.76 39.42 43.76 39.42 41.33 41.64 41.33 41.64 39.02 44.08 39.02 44.08 36.76 46.38 36.76 46.38 34.49 48.83 34.49 48.83 30.74 51.19 30.74 51.19 22.01 48.83 22.01"></polygon></svg>